<svg width="96" height="32" viewBox="0 0 96 32" fill="none" xmlns="http://www.w3.org/2000/svg">
<path d="M0 5C0 2.23858 2.23858 0 5 0H91C93.7614 0 96 2.23858 96 5V27C96 29.7614 93.7614 32 91 32H5C2.23857 32 0 29.7614 0 27V5Z" fill="#C53705"/>
<path d="M10.0291 7C9.49093 7 8.97482 7.21071 8.5943 7.58579C8.21378 7.96086 8 8.46957 8 9V21C8 21.5304 8.21378 22.0391 8.5943 22.4142C8.97482 22.7893 9.49093 23 10.0291 23H22.2035C22.7416 23 23.2577 22.7893 23.6382 22.4142C24.0188 22.0391 24.2325 21.5304 24.2325 21V9C24.2325 8.46957 24.0188 7.96086 23.6382 7.58579C23.2577 7.21071 22.7416 7 22.2035 7H10.0291ZM16.6235 11.5V14.5H19.6671C19.8017 14.5 19.9307 14.5527 20.0258 14.6464C20.121 14.7402 20.1744 14.8674 20.1744 15C20.1744 15.1326 20.121 15.2598 20.0258 15.3536C19.9307 15.4473 19.8017 15.5 19.6671 15.5H16.6235V18.5C16.6235 18.6326 16.5701 18.7598 16.475 18.8536C16.3798 18.9473 16.2508 19 16.1163 19C15.9817 19 15.8527 18.9473 15.7576 18.8536C15.6624 18.7598 15.609 18.6326 15.609 18.5V15.5H12.5654C12.4309 15.5 12.3018 15.4473 12.2067 15.3536C12.1116 15.2598 12.0581 15.1326 12.0581 15C12.0581 14.8674 12.1116 14.7402 12.2067 14.6464C12.3018 14.5527 12.4309 14.5 12.5654 14.5H15.609V11.5C15.609 11.3674 15.6624 11.2402 15.7576 11.1464C15.8527 11.0527 15.9817 11 16.1163 11C16.2508 11 16.3798 11.0527 16.475 11.1464C16.5701 11.2402 16.6235 11.3674 16.6235 11.5Z" fill="white"/>
<path d="M36.9623 21L35.6323 17.556H31.4743L30.1303 21H29.3043L33.2383 10.976H33.9663L37.8023 21H36.9623ZM34.0363 13.216C34.0083 13.1227 33.9663 12.9967 33.9103 12.838C33.8543 12.6793 33.7983 12.5113 33.7423 12.334C33.6863 12.1567 33.6303 11.998 33.5743 11.858C33.5277 12.0167 33.4763 12.18 33.4203 12.348C33.3737 12.516 33.3223 12.6747 33.2663 12.824C33.2197 12.9733 33.173 13.1087 33.1263 13.23L31.7543 16.828H35.3803L34.0363 13.216ZM41.7279 21.14C40.7292 21.14 39.9592 20.8227 39.4179 20.188C38.8859 19.544 38.6199 18.6013 38.6199 17.36C38.6199 16.072 38.8999 15.092 39.4599 14.42C40.0292 13.748 40.8086 13.412 41.7979 13.412C42.2179 13.412 42.5819 13.4773 42.8899 13.608C43.1979 13.7293 43.4592 13.8973 43.6739 14.112C43.8979 14.3267 44.0706 14.5693 44.1919 14.84H44.2479C44.2386 14.616 44.2246 14.3733 44.2059 14.112C44.1966 13.8413 44.1919 13.5987 44.1919 13.384V10.36H44.9899V21H44.3459L44.2339 19.698H44.1919C44.0612 19.9593 43.8886 20.202 43.6739 20.426C43.4592 20.6407 43.1932 20.8133 42.8759 20.944C42.5586 21.0747 42.1759 21.14 41.7279 21.14ZM41.8259 20.454C42.6939 20.454 43.3052 20.1927 43.6599 19.67C44.0239 19.1473 44.2059 18.3913 44.2059 17.402V17.276C44.2059 16.2493 44.0239 15.4653 43.6599 14.924C43.3052 14.3733 42.7126 14.098 41.8819 14.098C41.0792 14.098 40.4726 14.3827 40.0619 14.952C39.6512 15.512 39.4459 16.3193 39.4459 17.374C39.4459 18.382 39.6419 19.1473 40.0339 19.67C40.4259 20.1927 41.0232 20.454 41.8259 20.454ZM50.1088 21.14C49.1101 21.14 48.3401 20.8227 47.7988 20.188C47.2668 19.544 47.0008 18.6013 47.0008 17.36C47.0008 16.072 47.2808 15.092 47.8408 14.42C48.4101 13.748 49.1894 13.412 50.1788 13.412C50.5988 13.412 50.9628 13.4773 51.2708 13.608C51.5788 13.7293 51.8401 13.8973 52.0548 14.112C52.2788 14.3267 52.4514 14.5693 52.5728 14.84H52.6288C52.6194 14.616 52.6054 14.3733 52.5868 14.112C52.5774 13.8413 52.5728 13.5987 52.5728 13.384V10.36H53.3708V21H52.7268L52.6148 19.698H52.5728C52.4421 19.9593 52.2694 20.202 52.0548 20.426C51.8401 20.6407 51.5741 20.8133 51.2568 20.944C50.9394 21.0747 50.5568 21.14 50.1088 21.14ZM50.2068 20.454C51.0748 20.454 51.6861 20.1927 52.0408 19.67C52.4048 19.1473 52.5868 18.3913 52.5868 17.402V17.276C52.5868 16.2493 52.4048 15.4653 52.0408 14.924C51.6861 14.3733 51.0934 14.098 50.2628 14.098C49.4601 14.098 48.8534 14.3827 48.4428 14.952C48.0321 15.512 47.8268 16.3193 47.8268 17.374C47.8268 18.382 48.0228 19.1473 48.4148 19.67C48.8068 20.1927 49.4041 20.454 50.2068 20.454ZM67.0123 21H66.1583L60.3623 12.264H60.3203C60.3203 12.4507 60.325 12.642 60.3343 12.838C60.3437 13.0247 60.3483 13.2207 60.3483 13.426C60.3577 13.6313 60.3623 13.8413 60.3623 14.056C60.3717 14.2613 60.3763 14.4713 60.3763 14.686V21H59.6203V11.004H60.4883L66.2563 19.712H66.2983C66.2983 19.572 66.2937 19.4087 66.2843 19.222C66.275 19.026 66.2657 18.8207 66.2563 18.606C66.2563 18.3913 66.2517 18.1767 66.2423 17.962C66.2423 17.7473 66.2423 17.542 66.2423 17.346V11.004H67.0123V21ZM72.4656 13.412C73.1096 13.412 73.6416 13.5613 74.0616 13.86C74.4909 14.1493 74.8129 14.5507 75.0276 15.064C75.2516 15.5773 75.3636 16.17 75.3636 16.842V17.374H70.0436C70.0436 18.3727 70.2722 19.1333 70.7296 19.656C71.1962 20.1787 71.8542 20.44 72.7036 20.44C73.1702 20.44 73.5762 20.4027 73.9216 20.328C74.2669 20.2533 74.6449 20.1227 75.0556 19.936V20.664C74.6822 20.832 74.3136 20.9533 73.9496 21.028C73.5856 21.1027 73.1609 21.14 72.6756 21.14C71.9382 21.14 71.3082 20.986 70.7856 20.678C70.2722 20.37 69.8802 19.9313 69.6096 19.362C69.3482 18.7833 69.2176 18.1113 69.2176 17.346C69.2176 16.5807 69.3436 15.904 69.5956 15.316C69.8476 14.728 70.2162 14.266 70.7016 13.93C71.1869 13.5847 71.7749 13.412 72.4656 13.412ZM72.4656 14.084C71.7749 14.084 71.2196 14.3127 70.7996 14.77C70.3796 15.218 70.1322 15.8667 70.0576 16.716H74.5376C74.5376 16.1933 74.4629 15.736 74.3136 15.344C74.1642 14.952 73.9356 14.644 73.6276 14.42C73.3289 14.196 72.9416 14.084 72.4656 14.084ZM81.5407 16.156C81.4941 15.9973 81.4474 15.8433 81.4007 15.694C81.3634 15.5447 81.3261 15.4047 81.2887 15.274C81.2514 15.134 81.2141 14.9987 81.1767 14.868C81.1394 14.7373 81.1067 14.616 81.0787 14.504H81.0367C81.0087 14.616 80.9761 14.7373 80.9387 14.868C80.9107 14.9987 80.8781 15.1387 80.8407 15.288C80.8034 15.428 80.7614 15.5727 80.7147 15.722C80.6774 15.862 80.6354 16.0113 80.5887 16.17L79.0067 21H78.1667L76.0667 13.552H76.8927L78.1527 18.158C78.2274 18.438 78.2927 18.6947 78.3487 18.928C78.4047 19.152 78.4561 19.362 78.5027 19.558C78.5494 19.7447 78.5821 19.9173 78.6007 20.076H78.6427C78.6707 19.964 78.6987 19.8427 78.7267 19.712C78.7641 19.572 78.8014 19.4273 78.8387 19.278C78.8761 19.1287 78.9181 18.97 78.9647 18.802C79.0207 18.6247 79.0767 18.4473 79.1327 18.27L80.6727 13.552H81.4987L82.9687 18.256C83.0434 18.48 83.1087 18.704 83.1647 18.928C83.2301 19.1427 83.2861 19.348 83.3327 19.544C83.3887 19.7307 83.4307 19.908 83.4587 20.076H83.5007C83.5194 19.9173 83.5474 19.7447 83.5847 19.558C83.6314 19.362 83.6827 19.1473 83.7387 18.914C83.8041 18.6807 83.8741 18.4287 83.9487 18.158L85.1667 13.552H85.9787L83.9487 21H83.0667L81.5407 16.156Z" fill="white"/>
</svg>
