<svg width="21" height="20" viewBox="0 0 21 20" fill="none" xmlns="http://www.w3.org/2000/svg">
<rect width="20.273" height="20" rx="3" fill="#C53705"/>
<path d="M12.3353 5.93018V6.55029H14.5527C14.6367 6.55029 14.7173 6.58296 14.7767 6.64111C14.8361 6.69925 14.8694 6.77812 14.8694 6.86035C14.8694 6.94258 14.8361 7.02145 14.7767 7.0796C14.7173 7.13774 14.6367 7.17041 14.5527 7.17041H14.2118L13.6714 13.7809C13.646 14.0917 13.5018 14.3817 13.2677 14.5931C13.0336 14.8046 12.7267 14.9219 12.4082 14.9219H8.46127C8.14273 14.9219 7.83585 14.8046 7.60174 14.5931C7.36764 14.3817 7.22349 14.0917 7.19801 13.7809L6.65761 7.17041H6.31677C6.23275 7.17041 6.15218 7.13774 6.09278 7.0796C6.03337 7.02145 6 6.94258 6 6.86035C6 6.77812 6.03337 6.69925 6.09278 6.64111C6.15218 6.58296 6.23275 6.55029 6.31677 6.55029H8.53413V5.93018C8.53413 5.68348 8.63425 5.44688 8.81246 5.27244C8.99068 5.098 9.23239 5 9.48443 5H11.385C11.6371 5 11.8788 5.098 12.057 5.27244C12.2352 5.44688 12.3353 5.68348 12.3353 5.93018ZM9.16766 5.93018V6.55029H11.7018V5.93018C11.7018 5.84794 11.6684 5.76908 11.609 5.71093C11.5496 5.65278 11.469 5.62012 11.385 5.62012H9.48443C9.40041 5.62012 9.31984 5.65278 9.26044 5.71093C9.20103 5.76908 9.16766 5.84794 9.16766 5.93018ZM8.21736 8.11857L8.53413 13.3896C8.53582 13.4308 8.54589 13.4712 8.56375 13.5086C8.58161 13.5459 8.6069 13.5794 8.63815 13.6071C8.66939 13.6347 8.70596 13.656 8.74571 13.6697C8.78546 13.6833 8.8276 13.6891 8.86965 13.6866C8.9117 13.6841 8.95283 13.6735 8.99062 13.6553C9.02841 13.637 9.06211 13.6116 9.08974 13.5805C9.11738 13.5494 9.13839 13.5132 9.15155 13.474C9.16471 13.4348 9.16976 13.3935 9.16639 13.3524L8.84963 8.08136C8.84794 8.04016 8.83786 7.9997 8.82 7.96235C8.80214 7.925 8.77685 7.89152 8.74561 7.86386C8.71436 7.8362 8.67779 7.81491 8.63804 7.80125C8.59829 7.78759 8.55616 7.78183 8.51411 7.78431C8.47205 7.78678 8.43093 7.79744 8.39314 7.81567C8.35534 7.83389 8.32164 7.85931 8.29401 7.89043C8.26638 7.92156 8.24537 7.95777 8.2322 7.99694C8.21904 8.03612 8.214 8.07746 8.21736 8.11857ZM12.3543 7.79115C12.2705 7.7864 12.1882 7.81444 12.1254 7.86909C12.0627 7.92375 12.0247 8.00054 12.0198 8.0826L11.7031 13.3536C11.7003 13.4344 11.73 13.5131 11.7857 13.5729C11.8414 13.6326 11.9188 13.6686 12.0013 13.6733C12.0838 13.678 12.1649 13.651 12.2273 13.598C12.2897 13.545 12.3285 13.4702 12.3353 13.3896L12.6521 8.11857C12.6569 8.03651 12.6283 7.95592 12.5725 7.89452C12.5166 7.83313 12.4382 7.79594 12.3543 7.79115ZM10.4347 7.79053C10.3507 7.79053 10.2701 7.82319 10.2107 7.88134C10.1513 7.93949 10.118 8.01835 10.118 8.10059V13.3716C10.118 13.4538 10.1513 13.5327 10.2107 13.5908C10.2701 13.649 10.3507 13.6816 10.4347 13.6816C10.5187 13.6816 10.5993 13.649 10.6587 13.5908C10.7181 13.5327 10.7515 13.4538 10.7515 13.3716V8.10059C10.7515 8.01835 10.7181 7.93949 10.6587 7.88134C10.5993 7.82319 10.5187 7.79053 10.4347 7.79053Z" fill="white"/>
</svg>
