<svg width="21" height="20" viewBox="0 0 21 20" fill="none" xmlns="http://www.w3.org/2000/svg">
<rect x="0.392578" width="20.273" height="20" rx="3" fill="#C53705"/>
<path d="M12.8079 5.9375V6.5625H15.0252C15.1092 6.5625 15.1898 6.59542 15.2492 6.65403C15.3086 6.71263 15.342 6.79212 15.342 6.875C15.342 6.95788 15.3086 7.03737 15.2492 7.09597C15.1898 7.15458 15.1092 7.1875 15.0252 7.1875H14.6844L14.144 13.85C14.1185 14.1632 13.9743 14.4555 13.7402 14.6686C13.5061 14.8818 13.1993 15.0001 12.8807 15H8.93381C8.61526 15.0001 8.30838 14.8818 8.07428 14.6686C7.84017 14.4555 7.69603 14.1632 7.67054 13.85L7.13014 7.1875H6.7893C6.70529 7.1875 6.62472 7.15458 6.56531 7.09597C6.50591 7.03737 6.47253 6.95788 6.47253 6.875C6.47253 6.79212 6.50591 6.71263 6.56531 6.65403C6.62472 6.59542 6.70529 6.5625 6.7893 6.5625H9.00666V5.9375C9.00666 5.68886 9.10678 5.4504 9.285 5.27459C9.46321 5.09877 9.70493 5 9.95696 5H11.8576C12.1096 5 12.3513 5.09877 12.5295 5.27459C12.7077 5.4504 12.8079 5.68886 12.8079 5.9375ZM9.64019 5.9375V6.5625H12.1743V5.9375C12.1743 5.85462 12.1409 5.77513 12.0815 5.71653C12.0221 5.65792 11.9416 5.625 11.8576 5.625H9.95696C9.87295 5.625 9.79238 5.65792 9.73297 5.71653C9.67357 5.77513 9.64019 5.85462 9.64019 5.9375ZM8.6899 8.14312L9.00666 13.4556C9.00835 13.4972 9.01842 13.5379 9.03628 13.5756C9.05415 13.6132 9.07944 13.647 9.11068 13.6748C9.14193 13.7027 9.17849 13.7242 9.21824 13.7379C9.25799 13.7517 9.30013 13.7575 9.34218 13.755C9.38424 13.7525 9.42536 13.7418 9.46315 13.7234C9.50095 13.705 9.53464 13.6794 9.56228 13.6481C9.58991 13.6167 9.61092 13.5802 9.62408 13.5407C9.63725 13.5012 9.64229 13.4596 9.63893 13.4181L9.32216 8.10562C9.32047 8.0641 9.3104 8.02332 9.29254 7.98568C9.27468 7.94804 9.24938 7.91429 9.21814 7.88641C9.1869 7.85853 9.15033 7.83708 9.11058 7.82331C9.07083 7.80954 9.02869 7.80374 8.98664 7.80623C8.94459 7.80872 8.90346 7.81947 8.86567 7.83784C8.82788 7.8562 8.79418 7.88182 8.76655 7.91319C8.73891 7.94456 8.7179 7.98106 8.70474 8.02054C8.69158 8.06002 8.68653 8.1017 8.6899 8.14312ZM12.8269 7.81312C12.743 7.80834 12.6607 7.8366 12.598 7.89169C12.5352 7.94677 12.4973 8.02417 12.4924 8.10688L12.1756 13.4194C12.1729 13.5008 12.2025 13.5801 12.2582 13.6404C12.314 13.7006 12.3913 13.7369 12.4738 13.7416C12.5563 13.7464 12.6374 13.7191 12.6998 13.6657C12.7622 13.6122 12.801 13.5369 12.8079 13.4556L13.1246 8.14312C13.1295 8.06042 13.1008 7.9792 13.045 7.91731C12.9892 7.85543 12.9107 7.81796 12.8269 7.81312ZM10.9073 7.8125C10.8232 7.8125 10.7427 7.84542 10.6833 7.90403C10.6239 7.96263 10.5905 8.04212 10.5905 8.125V13.4375C10.5905 13.5204 10.6239 13.5999 10.6833 13.6585C10.7427 13.7171 10.8232 13.75 10.9073 13.75C10.9913 13.75 11.0718 13.7171 11.1312 13.6585C11.1907 13.5999 11.224 13.5204 11.224 13.4375V8.125C11.224 8.04212 11.1907 7.96263 11.1312 7.90403C11.0718 7.84542 10.9913 7.8125 10.9073 7.8125Z" fill="white"/>
</svg>
