<svg width="21" height="20" viewBox="0 0 21 20" fill="none" xmlns="http://www.w3.org/2000/svg">
<rect width="20.273" height="20" rx="3" fill="#7B2E16"/>
<path d="M13.1433 5.09078C13.0839 5.03265 13.0033 5 12.9193 5C12.8353 5 12.7548 5.03265 12.6954 5.09078L11.652 6.11211L14.0005 8.41089L15.0439 7.39018C15.0734 7.36137 15.0968 7.32716 15.1128 7.28949C15.1287 7.25182 15.137 7.21144 15.137 7.17065C15.137 7.12987 15.1287 7.08949 15.1128 7.05182C15.0968 7.01415 15.0734 6.97993 15.0439 6.95113L13.1433 5.09078ZM13.5526 8.84931L11.2041 6.55054L7.0861 10.5813H7.21724C7.30125 10.5813 7.38182 10.614 7.44123 10.6721C7.50063 10.7303 7.534 10.8091 7.534 10.8914V11.2014H7.85077C7.93478 11.2014 8.01535 11.2341 8.07476 11.2922C8.13416 11.3504 8.16754 11.4292 8.16754 11.5115V11.8215H8.4843C8.56831 11.8215 8.64888 11.8542 8.70829 11.9123C8.76769 11.9705 8.80107 12.0494 8.80107 12.1316V12.4417H9.11783C9.20185 12.4417 9.28242 12.4743 9.34182 12.5325C9.40123 12.5906 9.4346 12.6695 9.4346 12.7517V12.8801L13.5526 8.84931ZM8.82134 13.4803C8.80801 13.4457 8.80114 13.4089 8.80107 13.3718V13.0618H8.4843C8.40029 13.0618 8.31972 13.0291 8.26031 12.971C8.20091 12.9128 8.16754 12.8339 8.16754 12.7517V12.4417H7.85077C7.76676 12.4417 7.68619 12.409 7.62678 12.3508C7.56738 12.2927 7.534 12.2138 7.534 12.1316V11.8215H7.21724C7.13323 11.8215 7.05266 11.7889 6.99325 11.7307C6.93385 11.6726 6.90047 11.5937 6.90047 11.5115V11.2014H6.58371C6.54583 11.2014 6.50828 11.1946 6.47284 11.1816L6.35944 11.292C6.32925 11.3217 6.30554 11.3572 6.28975 11.3961L5.02268 14.4967C4.99964 14.5531 4.994 14.6148 5.00646 14.6742C5.01892 14.7337 5.04893 14.7883 5.09278 14.8312C5.13662 14.8741 5.19237 14.9035 5.25311 14.9157C5.31385 14.9279 5.37691 14.9223 5.43448 14.8998L8.60214 13.6596C8.64196 13.6441 8.67817 13.6209 8.70857 13.5913L8.82134 13.4803Z" fill="white"/>
</svg>
