<svg width="22" height="22" viewBox="0 0 22 22" fill="none" xmlns="http://www.w3.org/2000/svg">
<path d="M9.16667 6.1875C9.16667 5.09348 8.78036 4.04427 8.09273 3.27068C7.40509 2.4971 6.47246 2.0625 5.5 2.0625C4.52754 2.0625 3.59491 2.4971 2.90728 3.27068C2.21964 4.04427 1.83333 5.09348 1.83333 6.1875C1.83333 7.28152 2.21964 8.33073 2.90728 9.10432C3.59491 9.8779 4.52754 10.3125 5.5 10.3125C6.47246 10.3125 7.40509 9.8779 8.09273 9.10432C8.78036 8.33073 9.16667 7.28152 9.16667 6.1875ZM10.8625 7.5625C10.3087 10.3168 8.11632 12.375 5.5 12.375C2.46354 12.375 0 9.60352 0 6.1875C0 2.77148 2.46354 0 5.5 0C8.11632 0 10.3087 2.0582 10.8625 4.8125H13.6049C13.941 4.39141 14.4299 4.125 14.9722 4.125H18.9444C19.9566 4.125 20.7778 5.04883 20.7778 6.1875C20.7778 7.32617 19.9566 8.25 18.9444 8.25H14.9722C14.4299 8.25 13.941 7.98359 13.6049 7.5625H10.8625ZM5.5 3.4375C6.14831 3.4375 6.77006 3.72723 7.22848 4.24296C7.68691 4.75868 7.94445 5.45815 7.94445 6.1875C7.94445 6.91685 7.68691 7.61632 7.22848 8.13204C6.77006 8.64777 6.14831 8.9375 5.5 8.9375C4.85169 8.9375 4.22994 8.64777 3.77152 8.13204C3.31309 7.61632 3.05556 6.91685 3.05556 6.1875C3.05556 5.45815 3.31309 4.75868 3.77152 4.24296C4.22994 3.72723 4.85169 3.4375 5.5 3.4375ZM15.2778 10.3125C15.7858 10.3125 16.1944 10.7723 16.1944 11.3438V11.6875H19.8611C20.3691 11.6875 20.7778 12.1473 20.7778 12.7188C20.7778 13.2902 20.3691 13.75 19.8611 13.75H10.6944C10.1865 13.75 9.77778 13.2902 9.77778 12.7188C9.77778 12.1473 10.1865 11.6875 10.6944 11.6875H14.3611V11.3438C14.3611 10.7723 14.7698 10.3125 15.2778 10.3125ZM11 19.9375V15.125H19.5556V19.9375C19.5556 21.0762 18.7344 22 17.7222 22H12.8333C11.8212 22 11 21.0762 11 19.9375ZM1.83333 13.75H4.88889H5.5H6.72222C7.73438 13.75 8.55556 14.6738 8.55556 15.8125C8.55556 16.9512 7.73438 17.875 6.72222 17.875H6.11111C6.11111 18.6355 5.56493 19.25 4.88889 19.25H2.44444C1.7684 19.25 1.22222 18.6355 1.22222 17.875V14.4375C1.22222 14.0594 1.49722 13.75 1.83333 13.75ZM6.72222 16.5C7.05833 16.5 7.33333 16.1906 7.33333 15.8125C7.33333 15.4344 7.05833 15.125 6.72222 15.125H6.11111V16.5H6.72222ZM0.916667 19.9375H7.63889C8.14688 19.9375 8.55556 20.3973 8.55556 20.9688C8.55556 21.5402 8.14688 22 7.63889 22H0.916667C0.408681 22 0 21.5402 0 20.9688C0 20.3973 0.408681 19.9375 0.916667 19.9375Z" fill="#C53705"/>
</svg>
