<svg width="22" height="28" viewBox="0 0 22 28" fill="none" xmlns="http://www.w3.org/2000/svg">
<g clip-path="url(#clip0_157_32)">
<path d="M2.75 0C1.23177 0 0 1.17578 0 2.625V25.375C0 26.8242 1.23177 28 2.75 28H8.25V23.625C8.25 22.1758 9.48177 21 11 21C12.5182 21 13.75 22.1758 13.75 23.625V28H19.25C20.7682 28 22 26.8242 22 25.375V2.625C22 1.17578 20.7682 0 19.25 0H2.75ZM3.66667 13.125C3.66667 12.6438 4.07917 12.25 4.58333 12.25H6.41667C6.92083 12.25 7.33333 12.6438 7.33333 13.125V14.875C7.33333 15.3562 6.92083 15.75 6.41667 15.75H4.58333C4.07917 15.75 3.66667 15.3562 3.66667 14.875V13.125ZM10.0833 12.25H11.9167C12.4208 12.25 12.8333 12.6438 12.8333 13.125V14.875C12.8333 15.3562 12.4208 15.75 11.9167 15.75H10.0833C9.57917 15.75 9.16667 15.3562 9.16667 14.875V13.125C9.16667 12.6438 9.57917 12.25 10.0833 12.25ZM14.6667 13.125C14.6667 12.6438 15.0792 12.25 15.5833 12.25H17.4167C17.9208 12.25 18.3333 12.6438 18.3333 13.125V14.875C18.3333 15.3562 17.9208 15.75 17.4167 15.75H15.5833C15.0792 15.75 14.6667 15.3562 14.6667 14.875V13.125ZM4.58333 5.25H6.41667C6.92083 5.25 7.33333 5.64375 7.33333 6.125V7.875C7.33333 8.35625 6.92083 8.75 6.41667 8.75H4.58333C4.07917 8.75 3.66667 8.35625 3.66667 7.875V6.125C3.66667 5.64375 4.07917 5.25 4.58333 5.25ZM9.16667 6.125C9.16667 5.64375 9.57917 5.25 10.0833 5.25H11.9167C12.4208 5.25 12.8333 5.64375 12.8333 6.125V7.875C12.8333 8.35625 12.4208 8.75 11.9167 8.75H10.0833C9.57917 8.75 9.16667 8.35625 9.16667 7.875V6.125ZM15.5833 5.25H17.4167C17.9208 5.25 18.3333 5.64375 18.3333 6.125V7.875C18.3333 8.35625 17.9208 8.75 17.4167 8.75H15.5833C15.0792 8.75 14.6667 8.35625 14.6667 7.875V6.125C14.6667 5.64375 15.0792 5.25 15.5833 5.25Z" fill="#C53705"/>
</g>
<defs>
<clipPath id="clip0_157_32">
<rect width="22" height="28" fill="white"/>
</clipPath>
</defs>
</svg>
