<svg width="22" height="22" viewBox="0 0 22 22" fill="none" xmlns="http://www.w3.org/2000/svg">
<g clip-path="url(#clip0_157_14)">
<path fill-rule="evenodd" clip-rule="evenodd" d="M13.75 17.1875C13.75 17.3698 13.6776 17.5447 13.5486 17.6736C13.4197 17.8026 13.2448 17.875 13.0625 17.875H2.0625C1.88016 17.875 1.7053 17.8026 1.57636 17.6736C1.44743 17.5447 1.375 17.3698 1.375 17.1875V4.8125C1.375 4.63016 1.44743 4.4553 1.57636 4.32636C1.7053 4.19743 1.88016 4.125 2.0625 4.125H13.0625C13.2448 4.125 13.4197 4.19743 13.5486 4.32636C13.6776 4.4553 13.75 4.63016 13.75 4.8125V7.5625C13.75 7.74484 13.8224 7.9197 13.9514 8.04864C14.0803 8.17757 14.2552 8.25 14.4375 8.25C14.6198 8.25 14.7947 8.17757 14.9236 8.04864C15.0526 7.9197 15.125 7.74484 15.125 7.5625V4.8125C15.125 4.26549 14.9077 3.74089 14.5209 3.35409C14.1341 2.9673 13.6095 2.75 13.0625 2.75H2.0625C1.51549 2.75 0.990886 2.9673 0.604092 3.35409C0.217298 3.74089 0 4.26549 0 4.8125L0 17.1875C0 17.7345 0.217298 18.2591 0.604092 18.6459C0.990886 19.0327 1.51549 19.25 2.0625 19.25H13.0625C13.6095 19.25 14.1341 19.0327 14.5209 18.6459C14.9077 18.2591 15.125 17.7345 15.125 17.1875V14.4375C15.125 14.2552 15.0526 14.0803 14.9236 13.9514C14.7947 13.8224 14.6198 13.75 14.4375 13.75C14.2552 13.75 14.0803 13.8224 13.9514 13.9514C13.8224 14.0803 13.75 14.2552 13.75 14.4375V17.1875Z" fill="#C53705"/>
<path fill-rule="evenodd" clip-rule="evenodd" d="M21.7993 11.4866C21.8633 11.4228 21.9141 11.3469 21.9487 11.2634C21.9834 11.1799 22.0012 11.0903 22.0012 10.9999C22.0012 10.9095 21.9834 10.8199 21.9487 10.7364C21.9141 10.6529 21.8633 10.577 21.7993 10.5131L17.6743 6.38814C17.5452 6.25905 17.3701 6.18652 17.1875 6.18652C17.0049 6.18652 16.8298 6.25905 16.7007 6.38814C16.5717 6.51724 16.4991 6.69233 16.4991 6.87489C16.4991 7.05746 16.5717 7.23255 16.7007 7.36164L19.6529 10.3124H7.5625C7.38016 10.3124 7.2053 10.3848 7.07636 10.5138C6.94743 10.6427 6.875 10.8176 6.875 10.9999C6.875 11.1822 6.94743 11.3571 7.07636 11.486C7.2053 11.615 7.38016 11.6874 7.5625 11.6874H19.6529L16.7007 14.6381C16.5717 14.7672 16.4991 14.9423 16.4991 15.1249C16.4991 15.3075 16.5717 15.4825 16.7007 15.6116C16.8298 15.7407 17.0049 15.8133 17.1875 15.8133C17.3701 15.8133 17.5452 15.7407 17.6743 15.6116L21.7993 11.4866Z" fill="#C53705"/>
</g>
<defs>
<clipPath id="clip0_157_14">
<rect width="22" height="22" fill="white"/>
</clipPath>
</defs>
</svg>
