<svg width="22" height="22" viewBox="0 0 22 22" fill="none" xmlns="http://www.w3.org/2000/svg">
<path d="M21.3152 2.66755C21.4437 2.79642 21.5159 2.97096 21.5159 3.15293C21.5159 3.33489 21.4437 3.50943 21.3152 3.6383L19.8811 5.0738L17.1311 2.3238L18.5652 0.888302C18.6942 0.759416 18.869 0.687012 19.0513 0.687012C19.2336 0.687012 19.4084 0.759416 19.5374 0.888302L21.3152 2.66618V2.66755ZM18.909 6.04455L16.159 3.29455L6.79112 12.6638C6.71545 12.7395 6.65848 12.8317 6.62475 12.9333L5.51787 16.2526C5.4978 16.3131 5.49495 16.378 5.50964 16.44C5.52433 16.502 5.55599 16.5588 5.60107 16.6039C5.64615 16.6489 5.70288 16.6806 5.76492 16.6953C5.82696 16.71 5.89186 16.7071 5.95237 16.6871L9.27162 15.5802C9.37305 15.5468 9.46532 15.4904 9.54112 15.4152L18.909 6.04455Z" fill="#C53705"/>
<path fill-rule="evenodd" clip-rule="evenodd" d="M1.375 18.5625C1.375 19.1095 1.5923 19.6341 1.97909 20.0209C2.36589 20.4077 2.89049 20.625 3.4375 20.625H18.5625C19.1095 20.625 19.6341 20.4077 20.0209 20.0209C20.4077 19.6341 20.625 19.1095 20.625 18.5625V10.3125C20.625 10.1302 20.5526 9.9553 20.4236 9.82636C20.2947 9.69743 20.1198 9.625 19.9375 9.625C19.7552 9.625 19.5803 9.69743 19.4514 9.82636C19.3224 9.9553 19.25 10.1302 19.25 10.3125V18.5625C19.25 18.7448 19.1776 18.9197 19.0486 19.0486C18.9197 19.1776 18.7448 19.25 18.5625 19.25H3.4375C3.25516 19.25 3.0803 19.1776 2.95136 19.0486C2.82243 18.9197 2.75 18.7448 2.75 18.5625V3.4375C2.75 3.25516 2.82243 3.0803 2.95136 2.95136C3.0803 2.82243 3.25516 2.75 3.4375 2.75H12.375C12.5573 2.75 12.7322 2.67757 12.8611 2.54864C12.9901 2.4197 13.0625 2.24484 13.0625 2.0625C13.0625 1.88016 12.9901 1.7053 12.8611 1.57636C12.7322 1.44743 12.5573 1.375 12.375 1.375H3.4375C2.89049 1.375 2.36589 1.5923 1.97909 1.97909C1.5923 2.36589 1.375 2.89049 1.375 3.4375V18.5625Z" fill="#C53705"/>
</svg>
