<svg width="27" height="22" viewBox="0 0 27 22" fill="none" xmlns="http://www.w3.org/2000/svg">
<g clip-path="url(#clip0_157_24)">
<path d="M13.0148 5.81367C13.3144 5.54297 13.4325 5.11758 13.2764 4.73945C13.1794 4.51172 13.0739 4.28828 12.9558 4.07344L12.825 3.84141C12.6984 3.62656 12.5592 3.41602 12.4116 3.21406C12.1711 2.8875 11.7492 2.78008 11.3695 2.90898L10.1798 3.30859C9.72844 2.93047 9.20953 2.62109 8.65265 2.41055L8.39531 1.16445C8.31515 0.764844 8.0114 0.446875 7.61484 0.399609C7.3364 0.360938 7.05375 0.34375 6.76687 0.34375H6.73734C6.45047 0.34375 6.16781 0.360937 5.88937 0.395312C5.49281 0.442578 5.18906 0.764844 5.1089 1.16016L4.85156 2.41055C4.29047 2.62539 3.77578 2.93047 3.32437 3.30859L2.13047 2.91328C1.75078 2.78437 1.3289 2.8918 1.08844 3.21836C0.940779 3.42031 0.80156 3.63086 0.670779 3.8457L0.544216 4.07344C0.426091 4.28828 0.320623 4.51172 0.223591 4.74375C0.0674977 5.11758 0.185623 5.54297 0.485154 5.81797L1.42172 6.66875C1.37531 6.95664 1.35 7.25742 1.35 7.5625C1.35 7.86758 1.37531 8.16836 1.42172 8.46055L0.485154 9.31133C0.185623 9.58203 0.0674977 10.0074 0.223591 10.3855C0.320623 10.6133 0.426091 10.8367 0.544216 11.0559L0.670779 11.2793C0.797341 11.4984 0.93656 11.7047 1.08844 11.9066C1.3289 12.2332 1.75078 12.3406 2.13047 12.2117L3.32015 11.8121C3.77156 12.1902 4.29047 12.4996 4.84734 12.7102L5.10469 13.9605C5.18484 14.3602 5.48859 14.6781 5.88515 14.7254C6.16781 14.7598 6.45468 14.777 6.74578 14.777C7.03687 14.777 7.32375 14.7598 7.6064 14.7254C8.00297 14.6781 8.30672 14.3559 8.38687 13.9605L8.64422 12.7102C9.20531 12.4953 9.72 12.1902 10.1714 11.8121L11.3611 12.2117C11.7408 12.3406 12.1627 12.2332 12.4031 11.9066C12.5508 11.7047 12.69 11.4984 12.8166 11.2793L12.9473 11.0473C13.0655 10.8324 13.1709 10.609 13.268 10.3812C13.4241 10.0074 13.3059 9.58203 13.0064 9.30703L12.0698 8.45625C12.1162 8.16406 12.1416 7.86328 12.1416 7.5582C12.1416 7.25312 12.1162 6.95234 12.0698 6.66016L13.0064 5.80937L13.0148 5.81367ZM4.725 7.5625C4.725 7.01549 4.93835 6.49089 5.31811 6.10409C5.69787 5.7173 6.21293 5.5 6.75 5.5C7.28706 5.5 7.80213 5.7173 8.18189 6.10409C8.56165 6.49089 8.775 7.01549 8.775 7.5625C8.775 8.10951 8.56165 8.63411 8.18189 9.02091C7.80213 9.4077 7.28706 9.625 6.75 9.625C6.21293 9.625 5.69787 9.4077 5.31811 9.02091C4.93835 8.63411 4.725 8.10951 4.725 7.5625ZM21.292 21.5059C21.5578 21.8109 21.9755 21.9312 22.3467 21.7723C22.5703 21.6734 22.7897 21.566 23.0006 21.4457L23.2284 21.3125C23.4394 21.1836 23.6461 21.0418 23.8444 20.8914C24.165 20.6465 24.2705 20.2168 24.1439 19.8301L23.7516 18.6184C24.1228 18.1586 24.4266 17.6301 24.6333 17.0629L25.8609 16.8008C26.2533 16.7191 26.5655 16.4098 26.6119 16.0059C26.6456 15.718 26.6625 15.4258 26.6625 15.1293C26.6625 14.8328 26.6456 14.5406 26.6119 14.2527C26.5655 13.8488 26.2491 13.5395 25.8609 13.4578L24.6333 13.1914C24.4223 12.6199 24.1228 12.0957 23.7516 11.6359L24.1439 10.4242C24.2705 10.0375 24.165 9.60781 23.8444 9.36289C23.6461 9.2125 23.4394 9.0707 23.2284 8.9375L23.0048 8.80859C22.7939 8.68828 22.5745 8.58086 22.3467 8.48203C21.9797 8.32305 21.562 8.44336 21.292 8.74844L20.4567 9.70234C20.1698 9.65508 19.8745 9.6293 19.575 9.6293C19.2755 9.6293 18.9802 9.65508 18.6933 9.70234L17.858 8.74844C17.5922 8.44336 17.1745 8.32305 16.8033 8.48203C16.5797 8.58086 16.3603 8.68828 16.1452 8.80859L15.9258 8.9375C15.7106 9.06641 15.5081 9.2082 15.3098 9.36289C14.9892 9.60781 14.8837 10.0375 15.0103 10.4242L15.4027 11.6359C15.0314 12.0957 14.7277 12.6242 14.5209 13.1914L13.2933 13.4492C12.9009 13.5309 12.5887 13.8402 12.5423 14.2441C12.5086 14.532 12.4917 14.8242 12.4917 15.1207C12.4917 15.4172 12.5086 15.7094 12.5423 15.9973C12.5887 16.4012 12.9052 16.7105 13.2933 16.7922L14.5209 17.0543C14.7319 17.6258 15.0314 18.15 15.4027 18.6098L15.0103 19.8215C14.8837 20.2082 14.9892 20.6379 15.3098 20.8828C15.5081 21.0332 15.7106 21.175 15.9258 21.3039L16.1536 21.4371C16.3645 21.5574 16.5839 21.6648 16.8075 21.7637C17.1745 21.9227 17.5922 21.8023 17.8622 21.4973L18.6975 20.5434C18.9844 20.5906 19.2797 20.6164 19.5792 20.6164C19.8787 20.6164 20.1741 20.5906 20.4609 20.5434L21.2962 21.4973L21.292 21.5059ZM19.575 13.0625C19.8409 13.0625 20.1042 13.1158 20.3499 13.2195C20.5956 13.3231 20.8189 13.4751 21.0069 13.6666C21.1949 13.8581 21.3441 14.0855 21.4459 14.3357C21.5476 14.5859 21.6 14.8541 21.6 15.125C21.6 15.3959 21.5476 15.664 21.4459 15.9143C21.3441 16.1645 21.1949 16.3919 21.0069 16.5834C20.8189 16.7749 20.5956 16.9268 20.3499 17.0305C20.1042 17.1342 19.8409 17.1875 19.575 17.1875C19.3091 17.1875 19.0457 17.1342 18.8001 17.0305C18.5544 16.9268 18.3311 16.7749 18.1431 16.5834C17.9551 16.3919 17.8059 16.1645 17.7041 15.9143C17.6024 15.664 17.55 15.3959 17.55 15.125C17.55 14.8541 17.6024 14.5859 17.7041 14.3357C17.8059 14.0855 17.9551 13.8581 18.1431 13.6666C18.3311 13.4751 18.5544 13.3231 18.8001 13.2195C19.0457 13.1158 19.3091 13.0625 19.575 13.0625Z" fill="#C53705"/>
</g>
<defs>
<clipPath id="clip0_157_24">
<rect width="27" height="22" fill="white"/>
</clipPath>
</defs>
</svg>
