<svg width="22" height="22" viewBox="0 0 22 22" fill="none" xmlns="http://www.w3.org/2000/svg">
<g clip-path="url(#clip0_157_28)">
<path d="M8.18555 2.95625L9.68086 5.5H9.625H6.53125C5.58164 5.5 4.8125 4.73086 4.8125 3.78125C4.8125 2.83164 5.58164 2.0625 6.53125 2.0625H6.62578C7.26602 2.0625 7.86328 2.40195 8.18555 2.95625ZM2.75 3.78125C2.75 4.4 2.90039 4.98438 3.1625 5.5H1.375C0.614453 5.5 0 6.11445 0 6.875V9.625C0 10.3855 0.614453 11 1.375 11H20.625C21.3855 11 22 10.3855 22 9.625V6.875C22 6.11445 21.3855 5.5 20.625 5.5H18.8375C19.0996 4.98438 19.25 4.4 19.25 3.78125C19.25 1.69297 17.557 0 15.4688 0H15.3742C14.0035 0 12.7316 0.726172 12.0355 1.90781L11 3.67383L9.96445 1.91211C9.26836 0.726172 7.99648 0 6.62578 0H6.53125C4.44297 0 2.75 1.69297 2.75 3.78125ZM17.1875 3.78125C17.1875 4.73086 16.4184 5.5 15.4688 5.5H12.375H12.3191L13.8145 2.95625C14.141 2.40195 14.734 2.0625 15.3742 2.0625H15.4688C16.4184 2.0625 17.1875 2.83164 17.1875 3.78125ZM1.375 12.375V19.9375C1.375 21.0762 2.29883 22 3.4375 22H9.625V12.375H1.375ZM12.375 22H18.5625C19.7012 22 20.625 21.0762 20.625 19.9375V12.375H12.375V22Z" fill="#C53705"/>
</g>
<defs>
<clipPath id="clip0_157_28">
<rect width="22" height="22" fill="white"/>
</clipPath>
</defs>
</svg>
