<svg width="24" height="22" viewBox="0 0 24 22" fill="none" xmlns="http://www.w3.org/2000/svg">
<path d="M18.9961 8.93619C18.9961 10.9082 18.318 12.7298 17.1758 14.2077L22.9369 19.651C23.5057 20.1881 23.5057 21.0602 22.9369 21.5972C22.368 22.1343 21.4443 22.1343 20.8755 21.5972L15.1144 16.1539C13.549 17.2365 11.6196 17.8724 9.53089 17.8724C4.30229 17.8724 0.0657082 13.8726 0.0657082 8.93619C0.0657082 3.9998 4.30229 0 9.53089 0C14.7595 0 18.9961 3.9998 18.9961 8.93619ZM9.53089 15.1228C10.3914 15.1228 11.2435 14.9628 12.0385 14.6519C12.8336 14.341 13.5559 13.8853 14.1644 13.3108C14.7729 12.7363 15.2556 12.0543 15.5849 11.3037C15.9142 10.5531 16.0837 9.74863 16.0837 8.93619C16.0837 8.12376 15.9142 7.31928 15.5849 6.56868C15.2556 5.81809 14.7729 5.13609 14.1644 4.56161C13.5559 3.98713 12.8336 3.53143 12.0385 3.22052C11.2435 2.90962 10.3914 2.7496 9.53089 2.7496C8.67036 2.7496 7.81826 2.90962 7.02323 3.22052C6.22821 3.53143 5.50583 3.98713 4.89735 4.56161C4.28886 5.13609 3.80618 5.81809 3.47687 6.56868C3.14756 7.31928 2.97807 8.12376 2.97807 8.93619C2.97807 9.74863 3.14756 10.5531 3.47687 11.3037C3.80618 12.0543 4.28886 12.7363 4.89735 13.3108C5.50583 13.8853 6.22821 14.341 7.02323 14.6519C7.81826 14.9628 8.67036 15.1228 9.53089 15.1228Z" fill="#848484"/>
</svg>
