<svg width="17" height="16" viewBox="0 0 17 16" fill="none" xmlns="http://www.w3.org/2000/svg">
<path d="M14.0833 0H3.41667C2.70942 0 2.03115 0.210714 1.53105 0.585786C1.03095 0.960859 0.75 1.46957 0.75 2V14C0.75 14.5304 1.03095 15.0391 1.53105 15.4142C2.03115 15.7893 2.70942 16 3.41667 16H14.0833C14.7906 16 15.4689 15.7893 15.969 15.4142C16.469 15.0391 16.75 14.5304 16.75 14V2C16.75 1.46957 16.469 0.960859 15.969 0.585786C15.4689 0.210714 14.7906 0 14.0833 0ZM6.08333 7.5H11.4167C11.5935 7.5 11.763 7.55268 11.8881 7.64645C12.0131 7.74021 12.0833 7.86739 12.0833 8C12.0833 8.13261 12.0131 8.25979 11.8881 8.35355C11.763 8.44732 11.5935 8.5 11.4167 8.5H6.08333C5.90652 8.5 5.73695 8.44732 5.61193 8.35355C5.4869 8.25979 5.41667 8.13261 5.41667 8C5.41667 7.86739 5.4869 7.74021 5.61193 7.64645C5.73695 7.55268 5.90652 7.5 6.08333 7.5Z" fill="#7B2E16"/>
</svg>
