<svg width="37" height="37" viewBox="0 0 37 37" fill="none" xmlns="http://www.w3.org/2000/svg">
<rect width="37" height="37" rx="18.5" fill="#C53705"/>
<g clip-path="url(#clip0_469_2)">
<path d="M18 18C19.0609 18 20.0783 17.5786 20.8284 16.8284C21.5786 16.0783 22 15.0609 22 14C22 12.9391 21.5786 11.9217 20.8284 11.1716C20.0783 10.4214 19.0609 10 18 10C16.9391 10 15.9217 10.4214 15.1716 11.1716C14.4214 11.9217 14 12.9391 14 14C14 15.0609 14.4214 16.0783 15.1716 16.8284C15.9217 17.5786 16.9391 18 18 18ZM16.5719 19.5C13.4938 19.5 11 21.9937 11 25.0719C11 25.5844 11.4156 26 11.9281 26H24.0719C24.5844 26 25 25.5844 25 25.0719C25 21.9937 22.5063 19.5 19.4281 19.5H16.5719Z" fill="white"/>
</g>
<defs>
<clipPath id="clip0_469_2">
<rect width="14" height="16" fill="white" transform="translate(11 10)"/>
</clipPath>
</defs>
</svg>
