<svg width="22" height="25" viewBox="0 0 22 25" fill="none" xmlns="http://www.w3.org/2000/svg">
<g clip-path="url(#clip0_157_19)">
<path d="M11 12.5C12.6671 12.5 14.2659 11.8415 15.4447 10.6694C16.6235 9.49732 17.2857 7.9076 17.2857 6.25C17.2857 4.5924 16.6235 3.00269 15.4447 1.83058C14.2659 0.65848 12.6671 0 11 0C9.33292 0 7.73413 0.65848 6.55533 1.83058C5.37653 3.00269 4.71429 4.5924 4.71429 6.25C4.71429 7.9076 5.37653 9.49732 6.55533 10.6694C7.73413 11.8415 9.33292 12.5 11 12.5ZM8.7558 14.8438C3.91875 14.8438 0 18.7402 0 23.5498C0 24.3506 0.653125 25 1.45848 25H20.5415C21.3469 25 22 24.3506 22 23.5498C22 18.7402 18.0813 14.8438 13.2442 14.8438H8.7558Z" fill="#C53705"/>
</g>
<defs>
<clipPath id="clip0_157_19">
<rect width="22" height="25" fill="white"/>
</clipPath>
</defs>
</svg>
